<svg xmlns="http://www.w3.org/2000/svg" viewBox="0 0 320 360" fill="none">
  <g>
    <path d="M160 18 l16 8 14-4 14 12 16 0 6 16 16 6 0 16 12 14 -4 14 8 16 -8 16 4 14 -12 14 -16 0 -6 16 -16 6 0 16 -12 14 4 14 -8 16 -8 -16 -14 4 -14 -12 -16 0 -6 -16 -16 -6 0 -16 -12 -14 4 -14 -8 -16 8 -16 -4 -14 12 -14 16 0 6 -16 16 -6 0 -16 12 -14 -4 -14 8 -16 8 16 14 -4 14 12 16 0 z" fill="#475569"/>
    <circle cx="160" cy="120" r="62" fill="#08090B"/>
    <path d="M70 320 L70 170 L120 170 L160 230 L200 170 L250 170 L250 320 L210 320 L210 230 L175 280 L145 280 L110 230 L110 320 Z" fill="#B91C1C"/>
  </g>
  <text x="160" y="350" text-anchor="middle" font-family="Montserrat, Inter, sans-serif" font-size="22" font-weight="800" letter-spacing="6" fill="#E5E7EB">RECUPERADORA MENEGATTI</text>
</svg>
